# xmcd
#
# Track frame offsets:
#	150
#	15815
#	28737
#	44037
#	59910
#	74235
#	89130
#	102070
#	117715
#	131885
#	146545
#	161352
#	175765
#	190147
#	205695
#
# Disc length: 2984 seconds
#
# Revision: 0
# Processed by: cddbd v1.5.2PL0 Copyright (c) Steve Scherf et al.
# Submitted via: EasyCDDAExtractor 16.0.6.1
#
DISCID=e40ba60f
DTITLE=Συλλογικός δίσκος - Οι μεγάλες φωνές 2-Ρεμπέτικο τραγούδι
DYEAR=1900
DGENRE=Ρεμπέτικη
TTITLE0=Καζαντζίδης Στέλιος-Λύδια Γ.-Μαρινέλλα - Συννεφιασμένη Κυριακή [Βασ. Τ
TTITLE0=σιτσάνη]
TTITLE1=Βαμβακάρης Μάρκος-Γκρέκα Άντζελα - Να πεθάνεις [Μ. Βαμβακάρη]
TTITLE2=Νίνου Μαρίκα - Είμαστε αλάνια [Βασ. Τσιτσάνη]
TTITLE3=Παγιουμτζής Στράτος - Το παλιόσπιτο [Βασ. Τσιτσάνη]
TTITLE4=Εσκενάζυ Ρόζα - Χαρικλάκι [Παν. Τούντα]
TTITLE5=Ρούκουνας Κώστας ή Σαμιωτάκης - Κάτω στα Λεμονάδικα [Βαγγ. Παπάζογλου]
TTITLE6=Χρυσάφη Άννα - Λίγα ψίχουλα αγάπης [Στ. Τζουανάκου-Κ. Βίρβου]
TTITLE7=Μπίνης Τάκης - Ένας αλήτης [Κ. Καπλάνη-Κ. Μάνεση]
TTITLE8=Γεωργακοπούλου Ιωάννα-Περπινιάδης Στελλάκης - Πασατέμπος [Μαν. Χιώτη-Γ
TTITLE8=Γιαννακόπουλου]
TTITLE9=Παπαϊωάννου Γιάννης - Ο μπουφετζής [Γ. Παπαϊωάννου-Γ. Μπάτη-Δ. Σέμση]
TTITLE10=Μπέλλου Σωτηρία - Όταν πίνεις στην ταβέρνα [Βασ. Τσιτσάνη]
TTITLE11=Τσαουσάκης Πρόδρομος - Όμορφη Θεσσαλονίκη [Βασ. Τσιτσάνη]
TTITLE12=Κάβουρας Γιώργος - Τα μαναβάκια [Ν. Μεϊμάρη]
TTITLE13=Χασκίλ Στέλλα - Ο τραυματίας [Βασ. Τσιτσάνη]
TTITLE14=Γενίτσαρης Μιχάλης - Θα σαλτάρω, θα σαλτάρω [Μιχ. Γενίτσαρη]
EXTD=
EXTT0=
EXTT1=
EXTT2=
EXTT3=
EXTT4=
EXTT5=
EXTT6=
EXTT7=
EXTT8=
EXTT9=
EXTT10=
EXTT11=
EXTT12=
EXTT13=
EXTT14=
PLAYORDER=
